<?xml version="1.0" encoding="UTF-8"?>
<svg version="1.1" xmlns="http://www.w3.org/2000/svg" width="643" height="179">
<path d="M0 0 C212.19 0 424.38 0 643 0 C643 59.07 643 118.14 643 179 C430.81 179 218.62 179 0 179 C0 119.93 0 60.86 0 0 Z " fill="#FEFEFE" transform="translate(0,0)"/>
<path d="M0 0 C8.600625 -0.12375 8.600625 -0.12375 17.375 -0.25 C19.16341309 -0.28641602 20.95182617 -0.32283203 22.79443359 -0.36035156 C32.68354392 -0.47778267 40.99513226 -0.15297536 48.9375 6.4375 C49.9584375 7.7059375 49.9584375 7.7059375 51 9 C51.598125 9.721875 52.19625 10.44375 52.8125 11.1875 C54.90514726 16.14376982 55.0188237 21.16501232 53.19140625 26.25 C49.62341771 32.76867802 44.03670397 35.39767833 37.3527832 38.05078125 C33.49642629 39.1425686 29.9449689 39.25303643 25.9765625 39.1953125 C25.31422607 39.19329834 24.65188965 39.19128418 23.96948242 39.18920898 C21.52125005 39.17883155 19.07311726 39.15090964 16.625 39.125 C8.395625 39.063125 8.395625 39.063125 0 39 C0 26.13 0 13.26 0 0 Z " fill="#49EB0B" transform="translate(459,66)"/>
<path d="M0 0 C0.92065247 0.00015106 1.84130493 0.00030212 2.78985596 0.00045776 C4.26817902 0.01594162 4.26817902 0.01594162 5.77636719 0.03173828 C7.2994046 0.03598312 7.2994046 0.03598312 8.85321045 0.04031372 C12.09334135 0.05150077 15.33319495 0.07660287 18.57324219 0.10205078 C20.77115486 0.11208248 22.96907187 0.121208 25.16699219 0.12939453 C30.55250333 0.15143527 35.93785294 0.18489827 41.32324219 0.22705078 C41.32324219 2.86705078 41.32324219 5.50705078 41.32324219 8.22705078 C26.14324219 8.55705078 10.96324219 8.88705078 -4.67675781 9.22705078 C-4.01675781 11.20705078 -3.35675781 13.18705078 -2.67675781 15.22705078 C-1.1335083 15.24892456 -1.1335083 15.24892456 0.44091797 15.27124023 C4.27671166 15.32943735 8.11193141 15.40666781 11.94726562 15.48950195 C13.60374602 15.52265097 15.26033665 15.55071387 16.91699219 15.57348633 C19.30548853 15.6072181 21.69298389 15.65954037 24.08105469 15.71533203 C24.81566925 15.72172195 25.55028381 15.72811188 26.30715942 15.73469543 C31.8813563 15.89225758 35.96500201 17.18324263 40.19824219 20.85205078 C41.98249955 24.61881632 42.09227944 28.14903672 41.32324219 32.22705078 C39.3898267 35.79757287 37.2396832 37.92157045 33.32324219 39.22705078 C31.80416595 39.31374608 30.28155218 39.34474478 28.76000977 39.34057617 C27.83928177 39.34050064 26.91855377 39.34042511 25.96992493 39.34034729 C24.97921494 39.335186 23.98850494 39.33002472 22.96777344 39.32470703 C21.95100021 39.32329208 20.93422699 39.32187714 19.88664246 39.32041931 C16.63631255 39.31481785 13.3860513 39.30226511 10.13574219 39.28955078 C7.93326922 39.28453597 5.73079518 39.27997303 3.52832031 39.27587891 C-1.87339586 39.26484795 -7.27507193 39.2481084 -12.67675781 39.22705078 C-12.67675781 36.58705078 -12.67675781 33.94705078 -12.67675781 31.22705078 C9.59824219 30.73205078 9.59824219 30.73205078 32.32324219 30.22705078 C32.32324219 28.57705078 32.32324219 26.92705078 32.32324219 25.22705078 C31.26411621 25.21770508 30.20499023 25.20835938 29.11376953 25.19873047 C25.16608367 25.15871229 21.21916748 25.09292168 17.27197266 25.01953125 C15.56699548 24.99138991 13.8618895 24.97014143 12.15673828 24.95605469 C9.6985513 24.93452941 7.24190171 24.88783378 4.78417969 24.83642578 C4.02769135 24.83519714 3.271203 24.83396851 2.49179077 24.83270264 C-3.55271116 24.66722951 -7.03010812 22.60903551 -11.55175781 18.53955078 C-13.35328555 14.83641042 -13.3316687 11.25727163 -12.67675781 7.22705078 C-9.54356701 1.96776622 -6.04385715 -0.03320801 0 0 Z " fill="#48EB0A" transform="translate(537.6767578125,64.77294921875)"/>
<path d="M0 0 C5.04467402 2.81937869 7.94606028 7.02568084 9.75 12.4375 C10.24395115 17.59564562 10.42234574 22.01212704 8.1875 26.75 C-0.16034378 35.95403289 -0.16034378 35.95403289 -6.265625 36.67578125 C-11.95113197 36.8646355 -15.81037764 36.09303631 -20.25 32.4375 C-25.08574156 27.53626307 -27.41948983 24.31325043 -27.6875 17.3125 C-27.63105582 11.63672418 -26.90139845 8.25816503 -23.08203125 4.02734375 C-16.2477653 -1.90345847 -8.4548703 -3.67119368 0 0 Z " fill="#2C6319" transform="translate(93.25,66.5625)"/>
<path d="M0 0 C2.64 0 5.28 0 8 0 C8 12.87 8 25.74 8 39 C-2.98166066 33.92514167 -13.70472184 28.67477076 -24.23535156 22.71948242 C-25.0187793 22.27838135 -25.80220703 21.83728027 -26.609375 21.3828125 C-27.28967773 20.99496582 -27.96998047 20.60711914 -28.67089844 20.20751953 C-31.69942023 18.63738654 -34.86448093 17.34379389 -38 16 C-38 23.92 -38 31.84 -38 40 C-40.97 40 -43.94 40 -47 40 C-47 27.13 -47 14.26 -47 1 C-43.51112343 2.39555063 -40.5297872 3.72675253 -37.296875 5.5390625 C-36.40653564 6.0335791 -35.51619629 6.5280957 -34.59887695 7.03759766 C-33.65874756 7.56144043 -32.71861816 8.0852832 -31.75 8.625 C-24.01609395 12.89796863 -16.23705264 16.93288983 -8.19238281 20.58837891 C-5.28762103 21.90865919 -2.6635729 23.22428473 0 25 C0 16.75 0 8.5 0 0 Z " fill="#4EEC12" transform="translate(288,65)"/>
<path d="M0 0 C7.84592145 4.48338369 7.84592145 4.48338369 11.48046875 6.98046875 C12.25197266 7.50447266 13.02347656 8.02847656 13.81835938 8.56835938 C15.41123541 9.65697787 17.00235618 10.74816871 18.59179688 11.84179688 C19.35943359 12.36193359 20.12707031 12.88207031 20.91796875 13.41796875 C21.60656982 13.89000732 22.2951709 14.3620459 23.00463867 14.84838867 C25.82963341 16.4850838 25.82963341 16.4850838 29 17 C31.86820402 15.55479722 31.86820402 15.55479722 34.82421875 13.37890625 C35.37108841 13.00015854 35.91795807 12.62141083 36.48139954 12.23118591 C38.22530825 11.02002005 39.95648657 9.79200711 41.6875 8.5625 C43.43155544 7.34024638 45.17801041 6.12152524 46.92573547 4.90452576 C48.50642204 3.80122746 50.08087506 2.6890146 51.6550293 1.57641602 C54 0 54 0 55 0 C55 12.87 55 25.74 55 39 C52.36 39 49.72 39 47 39 C46.67 31.41 46.34 23.82 46 16 C40.06 19.96 34.12 23.92 28 28 C21.17517072 24.20842818 15.27141531 20.50481945 9 16 C8.67 23.59 8.34 31.18 8 39 C5.36 39 2.72 39 0 39 C0 26.13 0 13.26 0 0 Z " fill="#4AEB0C" transform="translate(307,66)"/>
<path d="M0 0 C2.64 0 5.28 0 8 0 C8 12.87 8 25.74 8 39 C-2.53757511 33.73121244 -13.04499633 28.42737296 -23.5 23 C-24.82416442 22.31369725 -26.14838304 21.62749906 -27.47265625 20.94140625 C-30.64915791 19.29565321 -33.82455554 17.6477982 -37 16 C-37.33 23.92 -37.66 31.84 -38 40 C-40.64 40 -43.28 40 -46 40 C-46 27.46 -46 14.92 -46 2 C-41.3995011 3.53349963 -37.66449396 5.08027385 -33.421875 7.30078125 C-32.81039612 7.61903366 -32.19891724 7.93728607 -31.56890869 8.2651825 C-29.62708614 9.27683055 -27.6884531 10.29441301 -25.75 11.3125 C-23.82519422 12.31861536 -21.89973192 13.32345994 -19.97393799 14.3276825 C-18.21555566 15.24536651 -16.45879868 16.16616294 -14.70214844 17.0871582 C-10.15723385 19.435444 -5.57564814 21.71217593 -1 24 C-0.67 16.08 -0.34 8.16 0 0 Z " fill="#4AEB0C" transform="translate(439,65)"/>
<path d="M0 0 C17.82 0 35.64 0 54 0 C54 2.64 54 5.28 54 8 C38.82 8 23.64 8 8 8 C8 10.31 8 12.62 8 15 C18.23 15 28.46 15 39 15 C39 17.64 39 20.28 39 23 C28.77 23 18.54 23 8 23 C8 28.28 8 33.56 8 39 C5.36 39 2.72 39 0 39 C0 26.13 0 13.26 0 0 Z " fill="#48EB0A" transform="translate(156,66)"/>
<path d="M0 0 C4.35454354 -0.08114056 8.7075656 -0.14057664 13.0625 -0.1875 C14.29162109 -0.21263672 15.52074219 -0.23777344 16.78710938 -0.26367188 C24.6693354 -0.32740955 30.48831674 -0.33159694 36.4375 5.3125 C38.37169361 8.63931301 38.69610497 10.21009516 38 14 C34.86266845 18.8486033 31.71162276 21.55313646 26 23 C21.51306182 23.35339698 17.05965256 23.2831841 12.5625 23.1875 C11.35400391 23.17396484 10.14550781 23.16042969 8.90039062 23.14648438 C5.93340055 23.11130267 2.96664145 23.05750131 0 23 C0 15.41 0 7.82 0 0 Z " fill="#FCFEFB" transform="translate(467,74)"/>
<path d="M0 0 C2.64 0 5.28 0 8 0 C8 12.87 8 25.74 8 39 C5.36 39 2.72 39 0 39 C0 26.13 0 13.26 0 0 Z " fill="#4BEB0E" transform="translate(373,66)"/>
<path d="M0 0 C2.64 0 5.28 0 8 0 C8 12.87 8 25.74 8 39 C5.36 39 2.72 39 0 39 C0 26.13 0 13.26 0 0 Z " fill="#48EB0A" transform="translate(222,66)"/>
<path d="M0 0 C0 0.99 0 1.98 0 3 C-2.05078125 3.22786458 -4.1015625 3.45572917 -6.15234375 3.68359375 C-8.01140229 3.81886614 -8.01140229 3.81886614 -9 5 C-8.01 5.33 -7.02 5.66 -6 6 C-6 8.31 -6 10.62 -6 13 C-7.32 13.33 -8.64 13.66 -10 14 C-8.23863645 16.18331689 -8.23863645 16.18331689 -6.0546875 16.1953125 C-3.02734375 16.09765625 -3.02734375 16.09765625 0 16 C0 17.32 0 18.64 0 20 C-9.14166085 20.62805304 -9.14166085 20.62805304 -12.5625 18.125 C-14 16 -14 16 -15 14 C-15.99 13.67 -16.98 13.34 -18 13 C-18 10.66666667 -18 8.33333333 -18 6 C-16.68 6 -15.36 6 -14 6 C-13.773125 5.21625 -13.54625 4.4325 -13.3125 3.625 C-12 1 -12 1 -9.8125 -0.375 C-6.29482705 -1.1567051 -3.51152719 -0.68853474 0 0 Z " fill="#F1F4F0" transform="translate(91,74)"/>
<path d="M0 0 C5.66104589 0.49658297 9.87674471 1.54510684 15 4 C14.835 4.5775 14.67 5.155 14.5 5.75 C13.85537969 8.26664369 13.85537969 8.26664369 14 12 C12.9375 13.8125 12.9375 13.8125 11 15 C7.3125 14.6875 7.3125 14.6875 4 14 C3.32471777 12.42032193 2.66010306 10.83608097 2 9.25 C1.62875 8.36828125 1.2575 7.4865625 0.875 6.578125 C0 4 0 4 0 0 Z " fill="#356922" transform="translate(55,54)"/>
<path d="M0 0 C4.66861981 1.60483806 9.09258167 3.97490194 13 7 C13 7.66 13 8.32 13 9 C11.21118264 10.00508801 9.41885304 11.00392736 7.625 12 C6.62726563 12.556875 5.62953125 13.11375 4.6015625 13.6875 C2 15 2 15 0 15 C0 13.68 0 12.36 0 11 C-1.65 11 -3.3 11 -5 11 C-5 8.69 -5 6.38 -5 4 C-3.35 4 -1.7 4 0 4 C0 2.68 0 1.36 0 0 Z " fill="#32671F" transform="translate(113,76)"/>
<path d="M0 0 C-0.41153737 4.97093824 -0.79600832 9.44508386 -3 14 C-3.5775 13.79375 -4.155 13.5875 -4.75 13.375 C-7.51967567 12.91338739 -8.64561267 13.57055055 -11 15 C-12.32 13.35 -13.64 11.7 -15 10 C-14.4740625 9.1028125 -14.4740625 9.1028125 -13.9375 8.1875 C-12.66695302 5.89186786 -12.66695302 5.89186786 -14 3 C-12.23050388 2.49528803 -10.45934777 1.99639315 -8.6875 1.5 C-7.70136719 1.2215625 -6.71523437 0.943125 -5.69921875 0.65625 C-3 0 -3 0 0 0 Z " fill="#2F661D" transform="translate(114,54)"/>
<path d="M0 0 C0.66 0 1.32 0 2 0 C3.00508801 1.78881736 4.00392736 3.58114696 5 5.375 C5.8353125 6.87160156 5.8353125 6.87160156 6.6875 8.3984375 C8 11 8 11 8 13 C6.68 13 5.36 13 4 13 C4 14.65 4 16.3 4 18 C1.69 18 -0.62 18 -3 18 C-3 16.35 -3 14.7 -3 13 C-4.32 13 -5.64 13 -7 13 C-5.39516194 8.33138019 -3.02509806 3.90741833 0 0 Z " fill="#2F651C" transform="translate(84,42)"/>
<path d="M0 0 C0.763125 0.350625 1.52625 0.70125 2.3125 1.0625 C5.04759379 2.32360884 5.04759379 2.32360884 8 1 C8.50692692 2.5811292 9.00526443 4.16501383 9.5 5.75 C9.7784375 6.63171875 10.056875 7.5134375 10.34375 8.421875 C11 11 11 11 11 15 C6.03083364 14.48594831 1.70973649 13.76615118 -3 12 C-2.835 11.2575 -2.67 10.515 -2.5 9.75 C-1.88074304 6.80993422 -1.88074304 6.80993422 -2 3 C-1.34 2.01 -0.68 1.02 0 0 Z " fill="#2F661C" transform="translate(103,98)"/>
<path d="M0 0 C2.31 0 4.62 0 7 0 C7 1.32 7 2.64 7 4 C8.32 4 9.64 4 11 4 C9.58707905 8.8274799 7.57025846 12.7162359 5 17 C1.21429586 15.73809862 0.78168429 14.45144185 -1.1875 11.0625 C-1.71730469 10.16660156 -2.24710937 9.27070312 -2.79296875 8.34765625 C-4 6 -4 6 -4 4 C-2.68 4 -1.36 4 0 4 C0 2.68 0 1.36 0 0 Z " fill="#2D641A" transform="translate(81,108)"/>
<path d="M0 0 C1.11375 0.2475 1.11375 0.2475 2.25 0.5 C5.19006578 1.11925696 5.19006578 1.11925696 9 1 C10.8125 2.8125 10.8125 2.8125 12 5 C11.67 5.99 11.34 6.98 11 8 C11 8.99 11 9.98 11 11 C9.23050388 11.50471197 7.45934777 12.00360685 5.6875 12.5 C4.70136719 12.7784375 3.71523438 13.056875 2.69921875 13.34375 C0 14 0 14 -3 14 C-2.69024532 12.22868439 -2.37709575 10.45796222 -2.0625 8.6875 C-1.88847656 7.70136719 -1.71445312 6.71523437 -1.53515625 5.69921875 C-1 3 -1 3 0 0 Z " fill="#30661D" transform="translate(58,99)"/>
<path d="M0 0 C0 1.32 0 2.64 0 4 C1.32 4 2.64 4 4 4 C4 6.31 4 8.62 4 11 C2.68 11 1.36 11 0 11 C0 12.32 0 13.64 0 15 C-4.77609498 13.35821735 -8.79382904 10.73453298 -13 8 C-10.83676753 5.68757908 -8.62352196 3.9843604 -5.9375 2.3125 C-5.24527344 1.87550781 -4.55304687 1.43851562 -3.83984375 0.98828125 C-2 0 -2 0 0 0 Z " fill="#2A6217" transform="translate(56,76)"/>
</svg>
